<svg width="28" height="28" viewBox="0 0 28 28" fill="none" xmlns="http://www.w3.org/2000/svg">
<path d="M11.6667 5.83333C11.6667 5.21449 11.9125 4.621 12.3501 4.18342C12.7877 3.74583 13.3812 3.5 14 3.5C14.6189 3.5 15.2123 3.74583 15.6499 4.18342C16.0875 4.621 16.3334 5.21449 16.3334 5.83333C17.6732 6.46687 18.8153 7.45305 19.6374 8.68618C20.4595 9.91932 20.9305 11.3529 21 12.8333V16.3333C21.0878 17.0587 21.3447 17.7532 21.75 18.3611C22.1552 18.9691 22.6976 19.4733 23.3334 19.8333H4.66669C5.30245 19.4733 5.8448 18.9691 6.25007 18.3611C6.65535 17.7532 6.91222 17.0587 7.00002 16.3333V12.8333C7.06951 11.3529 7.54054 9.91932 8.36263 8.68618C9.18472 7.45305 10.3269 6.46687 11.6667 5.83333" stroke="#878987" stroke-width="2" stroke-linecap="round" stroke-linejoin="round"/>
<path d="M10.5 19.8333V20.9999C10.5 21.9282 10.8687 22.8184 11.5251 23.4748C12.1815 24.1312 13.0717 24.4999 14 24.4999C14.9283 24.4999 15.8185 24.1312 16.4749 23.4748C17.1313 22.8184 17.5 21.9282 17.5 20.9999V19.8333" stroke="#878987" stroke-width="2" stroke-linecap="round" stroke-linejoin="round"/>
</svg>
