<svg width="20" height="21" viewBox="0 0 20 21" fill="none" xmlns="http://www.w3.org/2000/svg">
<path d="M15.8333 8H7.49999C6.57952 8 5.83333 8.74619 5.83333 9.66667V14.6667C5.83333 15.5871 6.57952 16.3333 7.49999 16.3333H15.8333C16.7538 16.3333 17.5 15.5871 17.5 14.6667V9.66667C17.5 8.74619 16.7538 8 15.8333 8Z" stroke="#3E423F" stroke-width="1.5" stroke-linecap="round" stroke-linejoin="round"/>
<path d="M11.6667 13.8333C12.5871 13.8333 13.3333 13.0871 13.3333 12.1667C13.3333 11.2462 12.5871 10.5 11.6667 10.5C10.7462 10.5 10 11.2462 10 12.1667C10 13.0871 10.7462 13.8333 11.6667 13.8333Z" stroke="#3E423F" stroke-width="1.5" stroke-linecap="round" stroke-linejoin="round"/>
<path d="M14.1667 8.00008V6.33341C14.1667 5.89139 13.9911 5.46746 13.6785 5.1549C13.366 4.84234 12.942 4.66675 12.5 4.66675H4.16667C3.72464 4.66675 3.30072 4.84234 2.98816 5.1549C2.67559 5.46746 2.5 5.89139 2.5 6.33341V11.3334C2.5 11.7754 2.67559 12.1994 2.98816 12.5119C3.30072 12.8245 3.72464 13.0001 4.16667 13.0001H5.83333" stroke="#3E423F" stroke-width="1.5" stroke-linecap="round" stroke-linejoin="round"/>
</svg>
