<svg width="38" height="18" viewBox="0 0 38 18" fill="none" xmlns="http://www.w3.org/2000/svg">
<path d="M14.317 0.879444C14.5701 0.879444 14.8129 0.979391 14.9919 1.1573C15.1709 1.3352 15.2715 1.5765 15.2715 1.82809V5.81241L20.2471 2.34985C20.3186 2.3 20.4026 2.27063 20.4898 2.26495C20.577 2.25926 20.664 2.27747 20.7415 2.31759C20.819 2.35771 20.8839 2.41821 20.9292 2.49248C20.9745 2.56675 20.9984 2.65195 20.9983 2.73879V14.1985C20.9984 14.2853 20.9745 14.3705 20.9292 14.4448C20.8839 14.519 20.819 14.5795 20.7415 14.6197C20.664 14.6598 20.577 14.678 20.4898 14.6723C20.4026 14.6666 20.3186 14.6372 20.2471 14.5874L15.2715 11.1248V15.1092C15.2715 15.3608 15.1709 15.602 14.9919 15.78C14.8129 15.9579 14.5701 16.0578 14.317 16.0578H0.954466C0.701326 16.0578 0.458554 15.9579 0.279557 15.78C0.10056 15.602 0 15.3608 0 15.1092V1.82809C0 1.5765 0.10056 1.3352 0.279557 1.1573C0.458554 0.979391 0.701326 0.879444 0.954466 0.879444H14.317ZM13.3625 2.77674H1.90893V14.1605H13.3625V2.77674ZM6.10859 5.46046C6.18123 5.46027 6.25241 5.48067 6.3138 5.51928L10.4705 8.14893C10.5245 8.18324 10.5689 8.23051 10.5997 8.28638C10.6305 8.34225 10.6466 8.40493 10.6466 8.46863C10.6466 8.53232 10.6305 8.59499 10.5997 8.65086C10.5689 8.70673 10.5245 8.754 10.4705 8.78832L6.3138 11.4189C6.2559 11.4556 6.18912 11.4761 6.1205 11.4782C6.05188 11.4803 5.98394 11.464 5.92386 11.431C5.86377 11.398 5.81375 11.3495 5.77907 11.2906C5.74439 11.2317 5.72634 11.1646 5.7268 11.0964V5.84087C5.7268 5.63122 5.8986 5.46046 6.10859 5.46046ZM19.0893 5.4709L15.2715 8.12711V8.80824L19.0893 11.4645V5.4709Z" fill="white"/>
<path d="M27.0205 6.9458C27.9469 7.64361 27.9849 10.1724 26.9595 10.7642C25.9814 11.3287 26.8656 12.8397 27.8471 12.2732C30.1557 10.9407 29.8797 6.92191 27.9081 5.43657C27.0062 4.757 26.1291 6.27434 27.0205 6.9458Z" fill="white"/>
<path d="M30.2096 4.28308C33.0577 6.44066 32.4671 11.2859 30.3596 13.6507C29.6116 14.49 30.8507 15.7304 31.603 14.8866C34.5599 11.5692 34.8936 5.65008 31.0974 2.77378C30.1973 2.0922 29.3205 3.6096 30.2096 4.28308Z" fill="white"/>
<path d="M33.2928 1.94551C35.5981 3.80286 36.1043 6.13973 36.2226 8.96326C36.3499 12.0015 35.8733 13.7108 33.7734 15.9888C33.0101 16.8167 34.2503 18.0562 35.0169 17.2247C37.427 14.6102 38.1294 12.5002 37.9812 8.96319C37.8396 5.58369 37.2829 2.92245 34.5363 0.709496C33.6647 0.00739628 32.4131 1.23679 33.2928 1.94551Z" fill="white"/>
</svg>
