<svg width="20" height="20" viewBox="0 0 20 20" fill="none" xmlns="http://www.w3.org/2000/svg">
<path d="M10 12.5C11.3807 12.5 12.5 11.3807 12.5 10C12.5 8.61929 11.3807 7.5 10 7.5C8.61929 7.5 7.5 8.61929 7.5 10C7.5 11.3807 8.61929 12.5 10 12.5Z" stroke="#3E423F" stroke-width="1.5" stroke-linecap="round" stroke-linejoin="round"/>
<path d="M10 16.6666C13.6819 16.6666 16.6667 13.6818 16.6667 9.99992C16.6667 6.31802 13.6819 3.33325 10 3.33325C6.31811 3.33325 3.33334 6.31802 3.33334 9.99992C3.33334 13.6818 6.31811 16.6666 10 16.6666Z" stroke="#3E423F" stroke-width="1.5" stroke-linecap="round" stroke-linejoin="round"/>
<path d="M10 1.66675V3.33341" stroke="#3E423F" stroke-width="1.5" stroke-linecap="round" stroke-linejoin="round"/>
<path d="M10 16.6667V18.3334" stroke="#3E423F" stroke-width="1.5" stroke-linecap="round" stroke-linejoin="round"/>
<path d="M16.6667 10H18.3333" stroke="#3E423F" stroke-width="1.5" stroke-linecap="round" stroke-linejoin="round"/>
<path d="M1.66666 10H3.33332" stroke="#3E423F" stroke-width="1.5" stroke-linecap="round" stroke-linejoin="round"/>
</svg>
