<svg width="16" height="18" viewBox="0 0 16 18" fill="none" xmlns="http://www.w3.org/2000/svg">
<path d="M4.25 8.86092C3.905 8.86092 3.625 8.58092 3.625 8.23592C3.625 5.78591 5.49417 3.79175 7.79167 3.79175C8.13667 3.79175 8.41667 4.07175 8.41667 4.41675C8.41667 4.76175 8.13667 5.10999 7.79167 5.10999C6.18333 5.10999 5.5 6.50008 5.08333 8.23592C5.00222 8.57382 4.75235 8.86092 4.25 8.86092Z" fill="#3E423F"/>
<path d="M15.0833 8.23592C15.0833 4.06091 11.8125 0.666748 7.79167 0.666748C3.77083 0.666748 0.5 4.06175 0.5 8.23592C0.5 12.0734 3.26667 15.2459 6.8375 15.7334L5.42083 17.2584C5.30667 17.3792 5.27667 17.5559 5.34333 17.7084C5.41 17.8601 5.56 17.9584 5.72667 17.9584H9.8575C10.0225 17.9584 10.1725 17.8601 10.2383 17.7084C10.305 17.5559 10.275 17.3792 10.1617 17.2584L8.745 15.7334C12.3158 15.2459 15.0833 12.0734 15.0833 8.23592ZM7.79167 14.2011C4.46 14.2011 2.16667 11.6517 2.16667 8.16675C2.16667 4.68175 4.46 2.12147 7.79167 2.12147C11.1233 2.12147 13.4167 4.75008 13.4167 8.23592C13.4167 11.7217 11.1233 14.2011 7.79167 14.2011Z" fill="#3E423F"/>
</svg>
